<svg id="Layer_1" data-name="Layer 1" xmlns="http://www.w3.org/2000/svg" viewBox="0 0 282.98762 51.90164"><defs><style>.cls-1{fill:#232323;}.cls-2{fill:#ff2323;}</style></defs><title>studPokerFull</title><path class="cls-1" d="M78.43652,48.002a7.372,7.372,0,0,1-3.03613,6.10938q-3.03661,2.35107-8.2456,2.34961a21.98294,21.98294,0,0,1-5.25049-.55469,26.0851,26.0851,0,0,1-4.1919-1.41016V48.39453h.6836a14.29975,14.29975,0,0,0,4.33886,2.4961,13.52938,13.52938,0,0,0,4.61524.87109,14.27135,14.27135,0,0,0,1.49756-.10254,5.7188,5.7188,0,0,0,1.51416-.3418,3.76016,3.76016,0,0,0,1.18017-.76855,1.85146,1.85146,0,0,0,.46387-1.36719,1.87866,1.87866,0,0,0-.67529-1.44434,4.60432,4.60432,0,0,0-1.978-.93164q-1.36743-.3413-2.88965-.64062a21.30325,21.30325,0,0,1-2.85742-.76074,8.92094,8.92094,0,0,1-4.40332-2.82813,7.16844,7.16844,0,0,1-1.34326-4.43554A6.91635,6.91635,0,0,1,60.895,32.33887a12.78526,12.78526,0,0,1,7.80615-2.24707,23.07326,23.07326,0,0,1,4.729.4873,21.28866,21.28866,0,0,1,4.04589,1.22168v5.86133h-.66748a12.72367,12.72367,0,0,0-3.58984-2.05859,11.84129,11.84129,0,0,0-4.33838-.82911,10.89156,10.89156,0,0,0-1.55469.11133,5.8831,5.8831,0,0,0-1.48974.419,2.8326,2.8326,0,0,0-1.09082.77734,1.75419,1.75419,0,0,0-.45557,1.1875,1.80309,1.80309,0,0,0,.73242,1.54688,7.95607,7.95607,0,0,0,2.76758.98242q1.33447.2915,2.564.56445a25.629,25.629,0,0,1,2.6455.75195,8.78508,8.78508,0,0,1,4.11036,2.60547A6.619,6.619,0,0,1,78.43652,48.002Z" transform="translate(-10.51824 -4.62765)"/><path class="cls-1" d="M101.68408,35.47461H94.11377V56H87.8623V35.47461H80.29248V30.55322h21.3916Z" transform="translate(-10.51824 -4.62765)"/><path class="cls-1" d="M126.67285,46.78906q0,4.7168-2.73486,7.22852-2.7356,2.5122-8.0586,2.51172-5.32323,0-8.05029-2.51172-2.7268-2.51222-2.72656-7.21192V30.55322h6.28369V46.42969a6.16462,6.16462,0,0,0,1.05811,3.94726,4.1802,4.1802,0,0,0,3.43505,1.29883,4.30412,4.30412,0,0,0,3.42676-1.24707,6.03422,6.03422,0,0,0,1.08252-3.999V30.55322h6.28418Z" transform="translate(-10.51824 -4.62765)"/><path class="cls-1" d="M155.42236,43.30273A12.98763,12.98763,0,0,1,153.876,49.668a11.20922,11.20922,0,0,1-7.79834,5.88769A24.64458,24.64458,0,0,1,141.064,56h-8.54687V30.55322h8.791a21.93727,21.93727,0,0,1,5.11181.521,11.57328,11.57328,0,0,1,3.61377,1.47851,11.33721,11.33721,0,0,1,3.94776,4.332A13.55025,13.55025,0,0,1,155.42236,43.30273Zm-6.46289-.05175a9.72531,9.72531,0,0,0-.87109-4.29785,6.232,6.232,0,0,0-2.75928-2.79493,6.95964,6.95964,0,0,0-1.96191-.6748,18.68741,18.68741,0,0,0-3.01953-.17871h-1.57911V51.23242h1.57911a17.93248,17.93248,0,0,0,3.272-.21387,6.90856,6.90856,0,0,0,2.03516-.77832,6.20088,6.20088,0,0,0,2.50683-2.74218A10.06122,10.06122,0,0,0,148.95947,43.251Z" transform="translate(-10.51824 -4.62765)"/><path class="cls-1" d="M180.19922,38.58594a10.091,10.091,0,0,1-.56836,3.34082,7.52222,7.52222,0,0,1-1.62891,2.74316,9.95942,9.95942,0,0,1-3.23047,2.27246,11.232,11.232,0,0,1-4.4375.76856h-3.89062V56h-6.252V30.55322h10.28906a15.553,15.553,0,0,1,3.90039.41846,8.95872,8.95872,0,0,1,2.80664,1.25684,6.65217,6.65217,0,0,1,2.23828,2.58007A8.48323,8.48323,0,0,1,180.19922,38.58594Zm-6.46289.14551a3.09824,3.09824,0,0,0-.55274-1.84961,3.03172,3.03172,0,0,0-1.28711-1.083,5.55865,5.55865,0,0,0-1.90429-.45215q-.92871-.04248-2.47461-.042h-1.07422v7.60449h1.791a13.98161,13.98161,0,0,0,2.6289-.2041,3.652,3.652,0,0,0,1.73438-.81934,3.1685,3.1685,0,0,0,.87109-1.30371A5.61857,5.61857,0,0,0,173.73633,38.73145Z" transform="translate(-10.51824 -4.62765)"/><path class="cls-1" d="M208.20117,43.28516q0,6.085-3.32129,9.66406-3.32079,3.58154-9.18164,3.58008-5.84472,0-9.165-3.58008-3.32079-3.58008-3.32129-9.66406,0-6.13477,3.32129-9.69825,3.32081-3.564,9.165-3.56347,5.82861,0,9.166,3.56347Q208.20117,37.14941,208.20117,43.28516ZM199.915,49.72852a7.76417,7.76417,0,0,0,1.35059-2.74317,13.96427,13.96427,0,0,0,.44042-3.71777,13.13406,13.13406,0,0,0-.50488-3.89649,7.70026,7.70026,0,0,0-1.31933-2.59765,4.95215,4.95215,0,0,0-1.91211-1.48633,5.80775,5.80775,0,0,0-4.49317-.01758,5.26788,5.26788,0,0,0-1.92968,1.4707,7.34342,7.34342,0,0,0-1.32618,2.63965,13.44226,13.44226,0,0,0-.51367,3.90528,13.15834,13.15834,0,0,0,.49707,3.87109,7.77915,7.77915,0,0,0,1.31055,2.60547,5.02334,5.02334,0,0,0,1.9043,1.4873,5.64818,5.64818,0,0,0,2.29589.47852,5.55694,5.55694,0,0,0,2.29493-.48731A5.04763,5.04763,0,0,0,199.915,49.72852Z" transform="translate(-10.51824 -4.62765)"/><path class="cls-1" d="M235.59961,56H227.918l-7.24512-10.18457-1.45019,1.88086V56h-6.252V30.55322h6.252V42.082l8.65918-11.52881h7.24609l-9.47461,11.77491Z" transform="translate(-10.51824 -4.62765)"/><path class="cls-1" d="M256.209,56h-17.5332V30.55322H256.209v4.92139H244.89453v4.39258h10.501v4.92187h-10.501v6.28907H256.209Z" transform="translate(-10.51824 -4.62765)"/><path class="cls-1" d="M284.79688,56h-7.63575l-6.59472-9.331h-2.89649V56h-6.21875V30.55322h10.48438a22.96318,22.96318,0,0,1,3.69531.25635,7.75186,7.75186,0,0,1,2.89844,1.11084,6.47459,6.47459,0,0,1,2.17285,2.21338,6.59115,6.59115,0,0,1,.80566,3.40918,7.84293,7.84293,0,0,1-1.24511,4.59766,9.49612,9.49612,0,0,1-3.55762,2.956Zm-9.752-17.6543a3.37678,3.37678,0,0,0-.374-1.64062,2.54709,2.54709,0,0,0-1.28613-1.07617,4.573,4.573,0,0,0-1.48145-.333q-.84668-.06006-1.96973-.05957h-2.26367v6.85254h1.92188a17.21107,17.21107,0,0,0,2.50683-.15332,3.49574,3.49574,0,0,0,1.69239-.70117,3.362,3.362,0,0,0,.95312-1.1709A4.094,4.094,0,0,0,275.04492,38.3457Z" transform="translate(-10.51824 -4.62765)"/><path class="cls-2" d="M293.50586,56H287.418V49.2832h6.08789Z" transform="translate(-10.51824 -4.62765)"/><g id="layer1"><path id="path5852" d="M14.61464,55.34013c0-.53055.3338-.70144,1.703-.872,5.22848-.65124,7.85786-1.69329,10.60638-4.20362,2.84612-2.5994,4.34954-6.09617,4.76219-11.07621.25115-3.03088.24553-3.03134-1.78661-.14006a11.23886,11.23886,0,0,1-9.72769,5.1638,8.6847,8.6847,0,0,1-6.55879-2.31419A8.42449,8.42449,0,0,1,10.51935,34.881a8.07221,8.07221,0,0,1,1.19844-4.93533c.97384-1.89368,1.93359-3.01215,4.80523-5.59979C27.36775,14.57364,29.57723,11.98042,31.14573,7.18357l.83575-2.55592.93307,2.50955c1.64015,4.41129,2.95027,6.065,10.608,13.39029,8.36859,8.00531,9.46715,9.52909,9.73285,13.50024a14.12217,14.12217,0,0,1-.24737,3.83345,9.534,9.534,0,0,1-4.6644,5.32189,7.352,7.352,0,0,1-4.30243,1.0455,14.8307,14.8307,0,0,1-3.70666-.43506,14.52259,14.52259,0,0,1-6.30787-5.16059l-1.48518-2.11137v2.19673a21.47563,21.47563,0,0,0,2.311,8.94188c1.90369,3.08378,6.20283,5.64534,10.64326,6.34157,3.90074.61162,3.897.61031,3.897,1.324,0,.66282-.29478.67428-17.389.67428C15.03686,56,14.61464,55.984,14.61464,55.34013Z" transform="translate(-10.51824 -4.62765)"/></g></svg>